<svg width="60" height="60" viewBox="0 0 60 60" fill="none" xmlns="http://www.w3.org/2000/svg">
<g clip-path="url(#clip0_16_259)">
<path d="M31.2499 28.7499H28.75V33.75H31.2499V28.7499Z" fill="#7355F7"/>
<path d="M30 32.4999C27.9289 32.4999 26.25 34.1789 26.25 36.2499V39.9999H28.75V36.2499C28.75 35.5596 29.3096 34.9999 30 34.9999C30.6904 34.9999 31.25 35.5596 31.25 36.2499V39.9999H33.75V36.2499C33.75 34.1789 32.0711 32.4999 30 32.4999Z" fill="#7355F7"/>
<path d="M55 32.4999H36.25V34.9999H55V32.4999Z" fill="#7355F7"/>
<path d="M23.75 32.4999H5.00003V34.9999H23.75V32.4999Z" fill="#7355F7"/>
<path d="M38.75 42.5001H21.2499C20.5596 42.5001 19.9999 43.0598 19.9999 43.7501V53.7501C19.9999 54.4404 20.5596 55.0001 21.2499 55.0001H38.7499C39.4403 55.0001 39.9999 54.4404 39.9999 53.7501V43.7501C39.9999 43.0596 39.4404 42.5001 38.75 42.5001ZM37.5 52.5H22.5V45H37.5V52.5Z" fill="#7355F7"/>
<path d="M42.5 52.5H17.4999C16.8096 52.5 16.2499 53.0597 16.2499 53.75V57.5C16.2499 58.8807 17.3692 60 18.7499 60H41.2499C42.6306 60 43.7498 58.8807 43.7498 57.5V53.75C43.7499 53.0597 43.1904 52.5 42.5 52.5ZM41.25 57.5H18.75V55.0001H41.25V57.5Z" fill="#7355F7"/>
<path d="M56.25 0H43.75V2.49996H56.25C56.9404 2.49996 57.5 3.05965 57.5 3.75V41.25C57.5 41.9404 56.9404 42.5 56.25 42.5H3.75C3.05965 42.5 2.49996 41.9404 2.49996 41.25V3.75C2.49996 3.05965 3.05965 2.49996 3.75 2.49996H16.25V0H3.75C1.67895 0 0 1.67895 0 3.75V41.25C0 43.3211 1.67895 45 3.75 45H56.25C58.3211 45 60 43.3211 60 41.25V3.75C60 1.67895 58.3211 0 56.25 0Z" fill="#7355F7"/>
<path d="M46.2499 57.5001H13.75V60H46.2499V57.5001Z" fill="#7355F7"/>
<path d="M52.5 6.24994H47.5V8.7499H51.25V30H53.7499V7.49998C53.75 6.80963 53.1904 6.24994 52.5 6.24994Z" fill="#7355F7"/>
<path d="M7.50001 6.24994C6.80966 6.24994 6.24997 6.80963 6.24997 7.49998V30H8.74993V8.75002H12.4999V6.24994H7.50001Z" fill="#7355F7"/>
<path d="M30 0C21.7158 0 15 6.71578 15 15C15 23.2842 21.7158 30 30 30C38.2806 29.9911 44.9911 23.2806 45 15C45 6.71578 38.2842 0 30 0ZM30 27.5C23.0965 27.5 17.5 21.9036 17.5 15C17.5 8.09637 23.0965 2.49996 30 2.49996C36.9005 2.50758 42.4924 8.09953 42.5 15C42.5 21.9035 36.9035 27.5 30 27.5Z" fill="#7355F7"/>
<path d="M21.25 15H23.7499C23.754 11.5499 26.5499 8.75412 29.9999 8.75002V6.24994C25.1698 6.25545 21.2555 10.1697 21.25 15Z" fill="#7355F7"/>
</g>
<defs>
<clipPath id="clip0_16_259">
<rect width="60" height="60" fill="white"/>
</clipPath>
</defs>
</svg>
