<svg width="60" height="60" viewBox="0 0 60 60" fill="none" xmlns="http://www.w3.org/2000/svg">
<path d="M50.625 0.9375H37.5C35.9494 0.9375 34.6875 2.19937 34.6875 3.75V5.625C32.6194 5.625 30.9375 7.30687 30.9375 9.375C30.9375 11.4431 32.6194 13.125 34.6875 13.125V17.8125H42.1875V15.9375C42.1875 14.9034 43.0284 14.0625 44.0625 14.0625C45.0966 14.0625 45.9375 14.9034 45.9375 15.9375V17.8125H50.625C52.1756 17.8125 53.4375 16.5506 53.4375 15V3.75C53.4375 2.19937 52.1756 0.9375 50.625 0.9375ZM51.5625 15C51.5625 15.5166 51.1425 15.9375 50.625 15.9375H47.8125C47.8125 13.8694 46.1306 12.1875 44.0625 12.1875C41.9944 12.1875 40.3125 13.8694 40.3125 15.9375H36.5625V11.25H34.6875C33.6534 11.25 32.8125 10.4091 32.8125 9.375C32.8125 8.34094 33.6534 7.5 34.6875 7.5H36.5625V3.75C36.5625 3.23344 36.9825 2.8125 37.5 2.8125H50.625C51.1425 2.8125 51.5625 3.23344 51.5625 3.75V15Z" fill="#7355F7"/>
<path d="M34.6875 19.6875C32.6194 19.6875 30.9375 21.3694 30.9375 23.4375H27.1875V18.75H25.3125C24.2784 18.75 23.4375 17.9091 23.4375 16.875C23.4375 15.8409 24.2784 15 25.3125 15H27.1875V6.5625H24.6741C14.6878 6.5625 6.5625 14.6878 6.5625 24.6741C6.5625 30.1284 8.98406 35.2378 13.2056 38.6916L16.875 41.6944V44.2359C15.7866 44.6241 15 45.6553 15 46.8759C15 48.1725 15.8859 49.2562 17.0812 49.5797C16.9509 49.9031 16.875 50.2547 16.875 50.625C16.875 51.8644 17.6859 52.9069 18.8006 53.2809C19.1888 56.5322 21.9591 59.0625 25.3125 59.0625C28.6659 59.0625 31.4362 56.5322 31.8244 53.2809C32.9391 52.9069 33.75 51.8644 33.75 50.625C33.75 50.2547 33.6741 49.9031 33.5437 49.5788C34.7391 49.2544 35.625 48.1716 35.625 46.875C35.625 45.6544 34.8384 44.6231 33.75 44.235V41.6934L37.4194 38.6906C41.6409 35.2378 44.0625 30.1284 44.0625 24.6741V23.4375H38.4375C38.4375 21.3694 36.7556 19.6875 34.6875 19.6875ZM24.6741 8.4375H25.3125V13.125C23.2444 13.125 21.5625 14.8069 21.5625 16.875C21.5625 18.9431 23.2444 20.625 25.3125 20.625V23.4375H21.5625C21.5625 21.3694 19.8806 19.6875 17.8125 19.6875C15.7444 19.6875 14.0625 21.3694 14.0625 23.4375H8.48438C9.11813 15.06 16.1372 8.4375 24.6741 8.4375ZM14.3925 37.2403C10.7728 34.2787 8.62969 29.9606 8.45062 25.3125H15.9375V23.4375C15.9375 22.4034 16.7784 21.5625 17.8125 21.5625C18.8466 21.5625 19.6875 22.4034 19.6875 23.4375V25.3125H25.3125V29.0625C23.2444 29.0625 21.5625 30.7444 21.5625 32.8125C21.5625 34.8806 23.2444 36.5625 25.3125 36.5625V44.0625H18.75V40.8056L14.3925 37.2403ZM25.3125 57.1875C23.0494 57.1875 21.1556 55.5741 20.7197 53.4375H29.9053C29.4694 55.5741 27.5756 57.1875 25.3125 57.1875ZM30.9375 51.5625H19.6875C19.17 51.5625 18.75 51.1416 18.75 50.625C18.75 50.1084 19.17 49.6875 19.6875 49.6875H30.9375C31.455 49.6875 31.875 50.1084 31.875 50.625C31.875 51.1416 31.455 51.5625 30.9375 51.5625ZM32.8125 47.8125H30.9375H19.6875H17.8125C17.295 47.8125 16.875 47.3916 16.875 46.875C16.875 46.3584 17.295 45.9375 17.8125 45.9375H32.8125C33.33 45.9375 33.75 46.3584 33.75 46.875C33.75 47.3916 33.33 47.8125 32.8125 47.8125ZM36.2325 37.2403L31.875 40.8056V44.0625H27.1875V34.6875H25.3125C24.2784 34.6875 23.4375 33.8466 23.4375 32.8125C23.4375 31.7784 24.2784 30.9375 25.3125 30.9375H27.1875V25.3125H32.8125V23.4375C32.8125 22.4034 33.6534 21.5625 34.6875 21.5625C35.7216 21.5625 36.5625 22.4034 36.5625 23.4375V25.3125H42.1744C41.9953 29.9606 39.8522 34.2787 36.2325 37.2403Z" fill="#7355F7"/>
</svg>
