<svg width="60" height="60" viewBox="0 0 60 60" fill="none" xmlns="http://www.w3.org/2000/svg">
<g clip-path="url(#clip0_16_311)">
<path fill-rule="evenodd" clip-rule="evenodd" d="M5.69674 26.7022C6.1487 26.7022 6.59051 26.8362 6.96631 27.0873C7.3421 27.3384 7.63499 27.6953 7.80795 28.1129C7.98091 28.5304 8.02616 28.9899 7.93799 29.4332C7.84982 29.8765 7.63218 30.2836 7.31259 30.6032C6.99301 30.9228 6.58583 31.1405 6.14255 31.2286C5.69928 31.3168 5.23981 31.2715 4.82225 31.0986C4.40469 30.9256 4.0478 30.6327 3.7967 30.2569C3.54561 29.8812 3.41158 29.4393 3.41158 28.9874C3.41233 28.3815 3.65332 27.8007 4.08171 27.3724C4.5101 26.944 5.09091 26.703 5.69674 26.7022ZM21.899 12.2486C22.3509 12.2486 22.7927 12.3826 23.1685 12.6337C23.5443 12.8848 23.8372 13.2417 24.0102 13.6592C24.1831 14.0768 24.2284 14.5362 24.1402 14.9795C24.052 15.4228 23.8344 15.83 23.5148 16.1496C23.1952 16.4691 22.7881 16.6868 22.3448 16.775C21.9015 16.8631 21.442 16.8179 21.0245 16.6449C20.6069 16.472 20.25 16.1791 19.9989 15.8033C19.7478 15.4275 19.6138 14.9857 19.6138 14.5337C19.6143 13.9278 19.8552 13.3468 20.2836 12.9184C20.7121 12.4899 21.2931 12.249 21.899 12.2486ZM38.1003 20.3497C38.5522 20.3497 38.994 20.4837 39.3698 20.7348C39.7456 20.9859 40.0385 21.3428 40.2115 21.7604C40.3844 22.1779 40.4297 22.6374 40.3415 23.0807C40.2533 23.524 40.0357 23.9311 39.7161 24.2507C39.3965 24.5703 38.9893 24.788 38.5461 24.8761C38.1028 24.9643 37.6433 24.919 37.2258 24.7461C36.8082 24.5731 36.4513 24.2802 36.2002 23.9044C35.9491 23.5287 35.8151 23.0868 35.8151 22.6349C35.8158 22.029 36.0568 21.4482 36.4852 21.0199C36.9136 20.5915 37.4944 20.3505 38.1003 20.3497ZM54.3014 1.97144C54.7534 1.97144 55.1952 2.10547 55.571 2.35656C55.9468 2.60766 56.2397 2.96455 56.4126 3.38211C56.5856 3.79967 56.6309 4.25913 56.5427 4.70241C56.4545 5.14569 56.2369 5.55286 55.9173 5.87245C55.5977 6.19203 55.1905 6.40967 54.7472 6.49785C54.304 6.58602 53.8445 6.54077 53.4269 6.36781C53.0094 6.19485 52.6525 5.90196 52.4014 5.52616C52.1503 5.15037 52.0163 4.70856 52.0163 4.2566C52.0167 3.65066 52.2576 3.06966 52.686 2.6412C53.1145 2.21273 53.6955 1.97185 54.3014 1.97144ZM1.53635 28.9877C1.53619 29.6009 1.67158 30.2065 1.93283 30.7613C2.19408 31.316 2.57472 31.8061 3.04752 32.1966C3.52032 32.587 4.07359 32.8681 4.66772 33.0197C5.26185 33.1714 5.88215 33.1898 6.48423 33.0737C7.08631 32.9576 7.65529 32.7098 8.15043 32.3481C8.64557 31.9865 9.05463 31.5198 9.34835 30.9815C9.64206 30.4433 9.81316 29.8468 9.84939 29.2347C9.88563 28.6226 9.78611 28.01 9.55795 27.4409L19.5919 17.9928C20.4474 18.5652 21.485 18.7994 22.5033 18.6498C23.5217 18.5002 24.4481 17.9776 25.1029 17.1834L34.056 21.6612C33.9183 22.2326 33.9032 22.8267 34.0118 23.4044C34.1204 23.982 34.3502 24.5301 34.686 25.0126C35.0218 25.495 35.456 25.9007 35.96 26.2032C36.4641 26.5056 37.0265 26.6977 37.6101 26.767C38.1938 26.8362 38.7856 26.781 39.3464 26.605C39.9072 26.4289 40.4243 26.1361 40.8637 25.7456C41.3031 25.3552 41.6547 24.8761 41.8955 24.3399C42.1363 23.8037 42.2607 23.2225 42.2605 22.6348C42.2617 21.7307 41.9665 20.8512 41.4202 20.1308L51.8803 7.63605C52.7108 8.2307 53.7308 8.4993 54.7464 8.39075C55.7621 8.28219 56.7023 7.80406 57.3883 7.04732C58.0743 6.29059 58.4581 5.30807 58.4668 4.28672C58.4755 3.26536 58.1084 2.27646 57.4353 1.50819C56.7623 0.739908 55.8303 0.245871 54.8167 0.120081C53.8031 -0.00570948 52.7786 0.245526 51.9382 0.825984C51.0978 1.40644 50.5001 2.27561 50.2588 3.2681C50.0176 4.26059 50.1496 5.30713 50.6298 6.20859L39.9822 18.9272C39.1406 18.4984 38.1779 18.3695 37.2531 18.5619C36.3284 18.7543 35.4969 19.2565 34.8962 19.9854L25.9421 15.5072C26.0199 15.1885 26.0592 14.8616 26.0592 14.5336C26.0596 13.8946 25.9127 13.2641 25.63 12.691C25.3473 12.1179 24.9364 11.6177 24.4292 11.2291C23.9219 10.8405 23.332 10.5739 22.7051 10.4501C22.0782 10.3263 21.4312 10.3486 20.8143 10.5152C20.1974 10.6818 19.6272 10.9883 19.1478 11.4109C18.6685 11.8335 18.293 12.3609 18.0504 12.952C17.8078 13.5432 17.7046 14.1823 17.7489 14.8197C17.7932 15.4572 17.9838 16.0759 18.3058 16.6279L8.4694 25.8906C7.87153 25.3541 7.13101 25.0023 6.33741 24.8777C5.5438 24.7532 4.73112 24.8613 3.99767 25.189C3.26422 25.5166 2.64142 26.0498 2.2046 26.724C1.76779 27.3981 1.53568 28.1844 1.53635 28.9877ZM58.1239 58.0287H50.4799V14.6939H58.1239V58.0287ZM59.0614 12.8191C59.31 12.8191 59.5485 12.9179 59.7243 13.0937C59.9001 13.2695 59.9989 13.508 59.9989 13.7566V58.9663C59.9989 59.2149 59.9001 59.4534 59.7243 59.6292C59.5485 59.805 59.31 59.9038 59.0614 59.9038H49.5423C49.2937 59.9038 49.0552 59.805 48.8794 59.6292C48.7036 59.4534 48.6048 59.2149 48.6048 58.9663V13.7569C48.6048 13.5082 48.7036 13.2698 48.8794 13.094C49.0552 12.9181 49.2937 12.8194 49.5423 12.8194L59.0614 12.8191ZM34.2774 31.0405H41.9227V58.0288H34.2774V31.0405ZM42.8601 59.9038H33.3399C33.0912 59.9038 32.8528 59.805 32.677 59.6292C32.5011 59.4534 32.4024 59.2149 32.4024 58.9663V30.103C32.4024 29.8544 32.5011 29.6159 32.677 29.4401C32.8528 29.2643 33.0912 29.1655 33.3399 29.1655H42.8603C43.1089 29.1655 43.3474 29.2643 43.5232 29.4401C43.699 29.6159 43.7978 29.8544 43.7978 30.103V58.9663C43.7978 59.2149 43.699 59.4534 43.5232 59.6292C43.3474 59.805 43.1089 59.9038 42.8603 59.9038H42.8601ZM18.0762 24.56H25.7201V58.0288H18.0765V24.56H18.0762ZM26.6577 59.9038H17.1388C16.8902 59.9038 16.6517 59.805 16.4759 59.6292C16.3001 59.4534 16.2013 59.2149 16.2013 58.9663V23.6225C16.2013 23.3739 16.3001 23.1354 16.4759 22.9596C16.6517 22.7838 16.8902 22.685 17.1388 22.685H26.6581C26.9067 22.6852 27.145 22.7841 27.3208 22.9598C27.4966 23.1356 27.5954 23.374 27.5956 23.6225V58.9663C27.5956 59.2149 27.4968 59.4534 27.321 59.6292C27.1452 59.805 26.9067 59.9038 26.6581 59.9038H26.6577ZM1.8742 36.7617H9.51928V58.0287H1.8742V36.7617ZM0.936702 59.9041H10.457C10.7057 59.9041 10.9441 59.8054 11.1199 59.6296C11.2957 59.4537 11.3945 59.2153 11.3945 58.9666V35.8242C11.3945 35.5756 11.2957 35.3371 11.1199 35.1613C10.9441 34.9855 10.7057 34.8867 10.457 34.8867H0.936585C0.687944 34.8867 0.449487 34.9855 0.273672 35.1613C0.0978565 35.3371 -0.000915498 35.5756 -0.000915498 35.8242V58.9663C-0.000946282 59.0894 0.0232802 59.2114 0.0703802 59.3251C0.11748 59.4389 0.186531 59.5423 0.273589 59.6294C0.360647 59.7164 0.464007 59.7855 0.577765 59.8326C0.691523 59.8798 0.813451 59.904 0.936585 59.904L0.936702 59.9041Z" fill="#7355F7"/>
</g>
<defs>
<clipPath id="clip0_16_311">
<rect width="60" height="60" fill="white"/>
</clipPath>
</defs>
</svg>
