<svg fill="none" xmlns="http://www.w3.org/2000/svg" viewBox="0 0 60 60"><g clip-path="url(#a)" fill="#7355F7"><path d="M31.2 28.7h-2.4v5h2.4v-5Z"/><path d="M30 32.5c-2 0-3.8 1.7-3.8 3.7V40h2.6v-3.8a1.3 1.3 0 0 1 2.4 0V40h2.6v-3.8c0-2-1.7-3.7-3.8-3.7ZM55 32.5H36.2V35H55v-2.5ZM23.8 32.5H5V35h18.8v-2.5ZM38.8 42.5H21.1c-.6 0-1.2.6-1.2 1.3v10c0 .6.6 1.2 1.2 1.2h17.5c.7 0 1.3-.6 1.3-1.2v-10c0-.7-.6-1.3-1.3-1.3Zm-1.3 10h-15V45h15v7.5Z"/><path d="M42.5 52.5h-25c-.7 0-1.3.6-1.3 1.3v3.7c0 1.4 1.2 2.5 2.5 2.5h22.5c1.4 0 2.5-1.1 2.5-2.5v-3.8c0-.6-.5-1.2-1.2-1.2Zm-1.3 5H18.8V55h22.6v2.5ZM56.3 0H43.8v2.5h12.5c.6 0 1.2.6 1.2 1.3v37.5c0 .6-.6 1.2-1.3 1.2H3.8c-.6 0-1.2-.6-1.2-1.3V3.8c0-.6.6-1.2 1.3-1.2h12.4V0H3.8C1.6 0 0 1.7 0 3.8v37.5c0 2 1.7 3.7 3.8 3.7h52.5c2 0 3.7-1.7 3.7-3.8V3.8c0-2-1.7-3.7-3.8-3.7Z"/><path d="M46.2 57.5H13.7V60h32.5v-2.5ZM52.5 6.2h-5v2.5h3.8V30h2.4V7.5c0-.7-.5-1.3-1.2-1.3ZM7.5 6.2c-.7 0-1.3.6-1.3 1.3V30h2.5V8.8h3.8V6.2h-5ZM30 0a15 15 0 1 0 0 30 15 15 0 0 0 0-30Zm0 27.5a12.5 12.5 0 1 1 0-25 12.5 12.5 0 0 1 0 25Z"/><path d="M21.3 15h2.4c0-3.5 2.8-6.2 6.3-6.2V6.2c-4.8 0-8.7 4-8.8 8.8Z"/></g><defs><clipPath id="a"><path fill="#fff" d="M0 0H60V60H0z"/></clipPath></defs></svg>