<svg width="58" height="58" viewBox="0 0 58 58" fill="none" xmlns="http://www.w3.org/2000/svg">
<path d="M11.1857 0.873779C9.6438 0.873779 8.37499 2.14258 8.37499 3.68448V33.6845C8.37499 34.9357 10.2518 34.9357 10.2518 33.6845V10.2525H47.7463V33.6845C47.718 34.9629 49.65 34.9629 49.6213 33.6845V3.68448C49.6213 2.14258 48.3544 0.873779 46.8125 0.873779H11.1857ZM11.1857 2.75065H46.8125C47.3481 2.75065 47.7463 3.14888 47.7463 3.68448V8.37562H10.2518V3.68448C10.2518 3.14888 10.6501 2.75065 11.1857 2.75065ZM13.0625 4.62384C12.5447 4.62384 12.125 5.0436 12.125 5.56135C12.125 6.07913 12.5447 6.49876 13.0625 6.49876C13.5802 6.49876 14 6.07913 14 5.56135C14 5.0436 13.5802 4.62384 13.0625 4.62384ZM16.8125 4.62384C16.2947 4.62384 15.875 5.0436 15.875 5.56135C15.875 6.07913 16.2947 6.49876 16.8125 6.49876C17.3303 6.49876 17.75 6.07913 17.75 5.56135C17.75 5.0436 17.3303 4.62384 16.8125 4.62384ZM20.5625 4.62384C20.0447 4.62384 19.625 5.0436 19.625 5.56135C19.625 6.07913 20.0447 6.49876 20.5625 6.49876C21.0803 6.49876 21.5 6.07913 21.5 5.56135C21.5 5.0436 21.0803 4.62384 20.5625 4.62384ZM33.6399 4.62567C32.3741 4.71178 32.4605 6.53171 33.6839 6.5007H44.9375C46.1601 6.47236 46.1601 4.65278 44.9375 4.62567H33.6399ZM3.69116 6.5007C2.14925 6.5007 0.874992 7.76766 0.874992 9.30957V43.0613C0.874992 44.6032 2.14925 45.872 3.69116 45.872H54.3143C55.8562 45.872 57.125 44.6032 57.125 43.0613V9.30946C57.125 7.76756 55.8562 6.5006 54.3143 6.5006H52.4393C51.1613 6.47225 51.1613 8.40397 52.4393 8.37562H54.3143C54.8499 8.37562 55.2482 8.77386 55.2482 9.30946V36.5006H2.74999V9.30946C2.74999 8.77386 3.15558 8.37562 3.69116 8.37562H5.55883C6.83686 8.40397 6.83686 6.47225 5.55883 6.5006L3.69116 6.5007ZM31.8235 13.9842C31.4113 13.9814 31.0458 14.2482 30.9226 14.6416L25.2958 31.5147C24.899 32.7013 26.6788 33.2963 27.0756 32.1098L32.7024 15.2312C32.9146 14.6241 32.4665 13.9884 31.8235 13.9842ZM35.8994 19.4041L40.6601 23.3756L35.8994 27.3417C34.8822 28.1381 36.1382 29.6408 37.1024 28.781L42.7219 24.0953C43.1707 23.7205 43.1707 23.0309 42.7219 22.6561L37.1024 17.9631C36.9344 17.8193 36.7211 17.7395 36.4524 17.7398C35.5662 17.8174 35.2449 18.8744 35.8994 19.4041ZM21.4762 17.7416C21.2651 17.7487 21.0625 17.8266 20.9012 17.963L15.2762 22.656C14.8275 23.0308 14.8275 23.7204 15.2762 24.0952L20.9012 28.7809C21.8687 29.6819 23.1607 28.1291 22.0987 27.3416L17.338 23.3755L22.0987 19.404C22.7914 18.8368 22.3711 17.7143 21.4762 17.7416ZM2.74999 38.3775H55.2482V43.0613C55.2482 43.5969 54.8499 43.9951 54.3143 43.9951H3.69116C3.15558 43.9951 2.74999 43.5969 2.74999 43.0613V38.3775ZM30.9263 40.2507L27.0792 40.2525C25.8842 40.3953 25.9645 42.0882 27.1232 42.1202H30.875C32.1625 42.2339 32.2697 40.2765 30.9263 40.2507ZM23.7412 47.6737C23.3649 47.6666 23.0203 47.8834 22.866 48.2267C22.4145 49.195 21.6057 50.3257 20.2091 51.497H18.6875C17.1456 51.497 15.8787 52.7731 15.8787 54.315V56.1827C15.8768 56.7004 16.2947 57.1217 16.8125 57.1238H41.1857C41.7063 57.1257 42.1288 56.7033 42.1268 56.1827V54.315C42.1268 52.7731 40.8526 51.497 39.3107 51.497H37.7909C36.3944 50.3258 35.5854 49.1949 35.134 48.2267C34.9753 47.8745 34.617 47.6558 34.2313 47.6755C33.5616 47.711 33.1433 48.4157 33.4348 49.0196C33.8003 49.8035 34.3583 50.6443 35.1102 51.497H22.8898C23.6416 50.6443 24.1997 49.8035 24.5652 49.0196C24.8628 48.4048 24.4242 47.6883 23.7412 47.6737ZM18.6875 53.3738H39.3107C39.8462 53.3738 40.2518 53.7794 40.2518 54.315V55.2489H17.7537V54.315C17.7537 53.7794 18.1519 53.3738 18.6875 53.3738Z" fill="#7355F7"/>
</svg>
