<svg id="svg8" height="512" viewBox="0 0 16.933333 16.933334" width="512" xmlns="http://www.w3.org/2000/svg" xmlns:svg="http://www.w3.org/2000/svg"><g id="layer1"><path id="rect10571" d="m2.1166643 15.345833h14.2875007c.293158 0 .529166.236008.529166.529167v.529167c0 .293158-.236008.529166-.529166.529166h-14.2875007c-.2931584 0-.5291667-.236008-.5291667-.529166v-.529167c0-.293159.2360083-.529167.5291667-.529167z" fill="#e4eff8"/><path id="path10573" d="m15.345833 15.345833c.293158 0 .529166.236008.529166.529166v.529167c0 .293158-.236008.529167-.529166.529167h1.058333c.293158 0 .529167-.236009.529167-.529167v-.529167c0-.293158-.236009-.529166-.529167-.529166z" fill="#c4dcf0"/><path id="path10575" d="m15.610421 5.027081-2.11667-2.116667-2.11666 2.116667h1.32292v.893265c0 4.04909-4.34137 7.308818-11.37709 7.308818 4.30547 0 12.96459 0 12.96459-7.308818v-.893265z" fill="#549ad4"/><path id="path10577" d="m4.497918 1.058333h4.2333318l1.5875012 1.5875v4.7625c0 .293158-.236008.529167-.529167.529167h-5.291666c-.293158 0-.529167-.236009-.529167-.529167v-5.820833c0-.293158.236009-.529167.529167-.529167z" fill="#e4eff8"/><path id="path10579" d="m9.5249998 1.8520833c1.2052132 4.4979166-3.1749999 5.8208332-5.4756348 5.8347857.0932.150043.2582.250631.448552.250631h5.291666c.293159 0 .529167-.236008.529167-.529167v-4.7625z" fill="#c4dcf0"/><path id="path10581" d="m13.49375 2.910417v3.010152c0 6.558557-6.964263 7.229669-11.506791 7.298779-.218633.0065-.439887.0098-.664042.0098 4.30547 0 12.964583.00022 12.964583-7.308598v-.893486h1.322916z" fill="#3588cb"/><path id="path10583" d="m3.0201508 11.267258c-.3618641-.361944-.8892628-.503354-1.3839508-.370215-.1321495.494942.00922 1.021885.3708673 1.383525.3618664.361943.8892616.503354 1.3839496.370203.1321542-.494918-.00922-1.021873-.3708661-1.383513z" fill="#b4d305"/><path id="path10585" d="m3.8590294 9.9443204c.3618454-.3619247.8892168-.503329 1.3838791-.3701959.1321427.4949165-.0092161 1.0218325-.370848 1.3834535-.3618477.361925-.8892156.503328-1.383878.370184-.1321473-.494892.0092161-1.02182.3708469-1.3834416z" fill="#94ac04"/><path id="path10587" d="m3.0200394 8.3569182c-.3618449-.3619243-.8892168-.5033272-1.3838774-.3701954-.1321436.494916.0092161 1.0218318.3708476 1.3834527.3618473.3619243.8892145.5033272 1.383875.3701838.1321484-.4948927-.0092161-1.0218201-.3708452-1.3834411z" fill="#b4d305"/><path id="path10589" d="m3.436458 8.4657551c-.1469491.00158-.2644605.1225992-.2617188.2695312v4.7207027c0 .352864.5292969.352864.5292969 0v-4.7207027c.0027857-.1492297-.1183321-.2712315-.2675781-.2695312z" fill="#b4d305" font-variant-ligatures="normal" font-variant-position="normal" font-variant-caps="normal" font-variant-numeric="normal" font-variant-alternates="normal" font-feature-settings="normal" text-indent="0" text-align="start" text-decoration-line="none" text-decoration-style="solid" text-decoration-color="#000000" text-transform="none" text-orientation="mixed" white-space="normal" shape-padding="0" isolation="auto" mix-blend-mode="normal" solid-color="#000000" solid-opacity="1" vector-effect="none"/><path id="path10732" d="m3.439583 13.187305c-.0000354.146313-.1187876.264834-.2651001.264584v.0041c0 .353122.5296834.353122.5296834 0v-4.7206051c.0028786-.1481331-.1164222-.269764-.2645833-.2692359z" fill="#94ac04" font-variant-ligatures="normal" font-variant-position="normal" font-variant-caps="normal" font-variant-numeric="normal" font-variant-alternates="normal" font-feature-settings="normal" text-indent="0" text-align="start" text-decoration-line="none" text-decoration-style="solid" text-decoration-color="#000000" text-transform="none" text-orientation="mixed" white-space="normal" shape-padding="0" isolation="auto" mix-blend-mode="normal" solid-color="#000000" solid-opacity="1" vector-effect="none"/><path id="path10599" d="m13.493748 15.345833v-6.3499998c0-.293159.236-.529167.52916-.529167h1.05834c.29316 0 .52917.236008.52917.529167v6.3499998z" fill="#b4d305"/><path id="path10601" d="m14.2875 8.4666662c.29316 0 .529166.236008.529166.529167v6.3499998h.79375v-6.3499998c0-.293159-.236006-.529167-.529166-.529167z" fill="#94ac04"/><path id="path10605" d="m2.381254 15.34583v-1.5875c0-.293159.236-.529167.52916-.529167h1.05834c.29316 0 .52917.236008.52917.529167v1.5875z" fill="#b4d305"/><path id="path10607" d="m6.085415 15.345833v-3.175c0-.293159.236-.529167.52916-.529167h1.05834c.29316 0 .52917.236008.52917.529167v3.175z" fill="#b4d305"/><path id="path10613" d="m9.789581 15.345833v-4.7625c0-.293159.236-.529167.52916-.529167h1.05834c.29316 0 .52917.236008.52917.529167v4.7625z" fill="#b4d305"/><path id="path10615" d="m3.175 13.229166c.29316 0 .529166.236008.529166.529167v1.5875h.79375v-1.5875c0-.293159-.236006-.529167-.529166-.529167z" fill="#94ac04"/><path id="path10617" d="m6.879166 11.641666c.29316 0 .529167.236008.529167.529167v3.175h.79375v-3.175c0-.293159-.236007-.529167-.529167-.529167z" fill="#94ac04"/><path id="path10619" d="m10.583333 10.054166c.29316 0 .529166.236008.529166.529167v4.7625h.79375v-4.7625c0-.293159-.236006-.529167-.529166-.529167z" fill="#94ac04"/><path id="path10631" d="m13.490234 1.0585938c-.146174.00159-.263366.1214049-.261718.2675781v.2753906c0 .3528638.529296.3528638.529296 0v-.2753906c.0017-.1484675-.11911-.2692531-.267578-.2675781z" fill="#c4dcf0" font-variant-ligatures="normal" font-variant-position="normal" font-variant-caps="normal" font-variant-numeric="normal" font-variant-alternates="normal" font-feature-settings="normal" text-indent="0" text-align="start" text-decoration-line="none" text-decoration-style="solid" text-decoration-color="#000000" text-transform="none" text-orientation="mixed" white-space="normal" shape-padding="0" isolation="auto" mix-blend-mode="normal" solid-color="#000000" solid-opacity="1" vector-effect="none"/><path id="path10633" d="m14.810547 1.5820312c-.06865.00211-.13378.030825-.181641.080078l-.263672.2636718c-.26628.2485246.123135.6399785.373047.375l.265625-.265625c.171492-.1687131.04711-.4602037-.193359-.4531248z" fill="#c4dcf0" font-variant-ligatures="normal" font-variant-position="normal" font-variant-caps="normal" font-variant-numeric="normal" font-variant-alternates="normal" font-feature-settings="normal" text-indent="0" text-align="start" text-decoration-line="none" text-decoration-style="solid" text-decoration-color="#000000" text-transform="none" text-orientation="mixed" white-space="normal" shape-padding="0" isolation="auto" mix-blend-mode="normal" solid-color="#000000" solid-opacity="1" vector-effect="none"/><path id="path10635" d="m12.142578 1.5820312c-.224011.022256-.319683.2962797-.158203.453125l.263672.265625c.25.2499999.625-.1250001.375-.375l-.265625-.2636718c-.055731-.0579446-.134783-.0874094-.214844-.0800782z" fill="#c4dcf0" font-variant-ligatures="normal" font-variant-position="normal" font-variant-caps="normal" font-variant-numeric="normal" font-variant-alternates="normal" font-feature-settings="normal" text-indent="0" text-align="start" text-decoration-line="none" text-decoration-style="solid" text-decoration-color="#000000" text-transform="none" text-orientation="mixed" white-space="normal" shape-padding="0" isolation="auto" mix-blend-mode="normal" solid-color="#000000" solid-opacity="1" vector-effect="none"/><g fill="#549ad4"><path id="path10637" d="m8.7312498 1.058333v1.5875h1.5875012z"/><path id="path10647" d="m5.0273438 2.3808594c-.3528644 0-.3528644.5292968 0 .5292968h2.3808593c.3528644 0 .3528644-.5292968 0-.5292968z" font-variant-ligatures="normal" font-variant-position="normal" font-variant-caps="normal" font-variant-numeric="normal" font-variant-alternates="normal" font-feature-settings="normal" text-indent="0" text-align="start" text-decoration-line="none" text-decoration-style="solid" text-decoration-color="#000000" text-transform="none" text-orientation="mixed" white-space="normal" shape-padding="0" isolation="auto" mix-blend-mode="normal" solid-color="#000000" solid-opacity="1" vector-effect="none"/><path id="path10649" d="m4.8945312 3.4394531c-.3528645 0-.3528645.5292969 0 .5292969h4.3652344c.3528644 0 .3528644-.5292969 0-.5292969z" font-variant-ligatures="normal" font-variant-position="normal" font-variant-caps="normal" font-variant-numeric="normal" font-variant-alternates="normal" font-feature-settings="normal" text-indent="0" text-align="start" text-decoration-line="none" text-decoration-style="solid" text-decoration-color="#000000" text-transform="none" text-orientation="mixed" white-space="normal" shape-padding="0" isolation="auto" mix-blend-mode="normal" solid-color="#000000" solid-opacity="1" vector-effect="none"/><path id="path10655" d="m5 6.6152344c-.3528365.0182544-.3254925.5475512.027344.5292968h4.2324218c.3528644 0 .3528644-.5292968 0-.5292968h-4.232422c-.00911-.0004712-.018235-.0004712-.027344 0z" font-variant-ligatures="normal" font-variant-position="normal" font-variant-caps="normal" font-variant-numeric="normal" font-variant-alternates="normal" font-feature-settings="normal" text-indent="0" text-align="start" text-decoration-line="none" text-decoration-style="solid" text-decoration-color="#000000" text-transform="none" text-orientation="mixed" white-space="normal" shape-padding="0" isolation="auto" mix-blend-mode="normal" solid-color="#000000" solid-opacity="1" vector-effect="none"/><path id="path10751" d="m4.8945312 4.4977863c-.3528644 0-.3528644.5292969 0 .5292969h4.3652344c.3528644 0 .3528644-.5292969 0-.5292969z" font-variant-ligatures="normal" font-variant-position="normal" font-variant-caps="normal" font-variant-numeric="normal" font-variant-alternates="normal" font-feature-settings="normal" text-indent="0" text-align="start" text-decoration-line="none" text-decoration-style="solid" text-decoration-color="#000000" text-transform="none" text-orientation="mixed" white-space="normal" shape-padding="0" isolation="auto" mix-blend-mode="normal" solid-color="#000000" solid-opacity="1" vector-effect="none"/><path id="path10753" d="m4.8945312 5.5561196c-.3528644 0-.3528644.5292969 0 .5292969h4.3652344c.3528644 0 .3528644-.5292969 0-.5292969z" font-variant-ligatures="normal" font-variant-position="normal" font-variant-caps="normal" font-variant-numeric="normal" font-variant-alternates="normal" font-feature-settings="normal" text-indent="0" text-align="start" text-decoration-line="none" text-decoration-style="solid" text-decoration-color="#000000" text-transform="none" text-orientation="mixed" white-space="normal" shape-padding="0" isolation="auto" mix-blend-mode="normal" solid-color="#000000" solid-opacity="1" vector-effect="none"/></g><path id="path10755" d="m7.8610189 6.6151c-.332794.2136-.6925924.3853262-1.059367.5296834h2.4582479c.3531221 0 .3531221-.5296834 0-.5296834z" fill="#3588cb"/><path id="path10760" d="m9.0139199 5.5562499c-.1412304.1906956-.2974674.3677756-.4692219.5291667h.7152018c.3450388-.00765.3450388-.5215128 0-.5291667z" fill="#3588cb"/><path id="path10641" d="m5.2068647 4.084335-3.928862-3.92885995c-.207294-.2073-.54105995-.2073-.74835395 0l-.374178.37417c-.207294.2073-.207294.54105995 0 .74835995l3.92886195 3.92886 1.49671.37418z" fill="#38668c"/><path id="path10643" d="m.90394175.00012105c-.135265 0-.27049.0519-.374137.155546l-.374138.374138c-.0266.0266-.04947.05555-.06925.08578.205356-.134322.481799-.111452.662492.06925l3.92895895 3.92844195.197921.791683.705383.176217-.374137-1.497066-3.92896-3.92844295c-.103647-.10365-.238872-.155546-.37413695-.155546z" fill="#2c5170"/><path id="path10659" d="m.90394175.00012105c-.135265 0-.27049.0519-.374137.155546l-.374138.374138c-.207294.2073-.207294.54097395 0 .74827405l.374138.3741379 1.12241195-1.12241195-.374138-.374138c-.1036469-.10365-.238872-.155546-.37413695-.155546z" fill="#e4eff8"/><path id="path10661" d="m4.0843327 5.206865 1.49671.37418-.374178-1.49671z" fill="#2c5170"/><path id="path10663" d="m.90394175.00012105c-.135265 0-.27049.0519-.374137.155546l-.374138.374138c-.0266.0266-.04947.05555-.06925.08578.205356-.134322.481799-.111452.662492.06925l.37413695.37413695.5291671-.52916595-.3741381-.374138c-.103647-.10365-.238872-.155546-.37413695-.155546z" fill="#c4dcf0"/></g></svg>