<svg id="Capa_1" enable-background="new 0 0 512 512" height="512" viewBox="0 0 512 512" width="512" xmlns="http://www.w3.org/2000/svg"><g><path d="m341.207 261.575v50.384l-45.205 34.037-45.205-34.037v-50.384z" fill="#fed2a4"/><path d="m270.797 311.958v-50.383h-20v50.383l45.205 34.038 10-7.53z" fill="#ffbd86"/><path d="m120.549 256h-65.094c-8.534 0-15.453-6.918-15.453-15.453v-97.825c0-8.534 6.918-15.453 15.453-15.453h65.094c8.534 0 15.453 6.918 15.453 15.453v46.036c0 1.843.727 3.611 2.022 4.922l18.191 18.398c4.371 4.421 1.239 11.922-4.978 11.922h-8.235c-3.866 0-7 3.134-7 7v9.547c0 8.535-6.918 15.453-15.453 15.453z" fill="#75cc77"/><path d="m104.002 416 58.61-76.083c3.522-4.573 8.255-8.067 13.662-10.088l74.554-27.87 40.961 30.863c2.494 1.879 5.931 1.879 8.425 0l40.961-30.863 100.979 31.812c17.791 5.8 29.845 22.386 29.845 41.125v137.066h-303.997v-79.962l-54.825 66.238c-5.732 8.597-15.382 13.762-25.715 13.762h-.554c-17.069 0-30.906-13.837-30.906-30.906v-33.094z" fill="#42a5f5"/><path d="m76.002 481.094v-33.094l48-32 58.61-76.083c3.522-4.573 8.255-8.067 13.662-10.089l61.186-22.873-6.632-4.997-74.554 27.87c-5.406 2.021-10.139 5.516-13.662 10.089l-58.61 76.083-48 32v33.094c0 17.069 13.837 30.906 30.906 30.906h.554c3.346 0 6.618-.55 9.711-1.574-12.297-4.08-21.171-15.666-21.171-29.332z" fill="#0593fc"/><path d="m311.79 332.822c2.494 1.879 5.931 1.879 8.425 0l35.065-26.42-14.103-4.443-35.174 26.503z" fill="#0593fc"/><path d="m168.002 415.697h240v64.303h-240z" fill="#ffca28"/><path d="m228.48 128.001h-25.515c-11.89 0-21.528 9.639-21.528 21.528v16.131c0 11.89 9.639 21.528 21.528 21.528h25.515z" fill="#fed2a4"/><path d="m363.521 128.001h25.516c11.89 0 21.528 9.639 21.528 21.528v16.131c0 11.89-9.639 21.528-21.528 21.528h-25.516z" fill="#fed2a4"/><path d="m218.48 84.638v117.072c0 39.549 32.059 71.608 71.608 71.608h11.827c39.549 0 71.608-32.059 71.608-71.608v-116.34z" fill="#fff3de"/><path d="m238.48 201.711v-116.978l-20-.094v117.073c0 39.549 32.06 71.608 71.608 71.608h11.827c1.372 0 2.733-.039 4.087-.115-37.646-2.12-67.522-33.318-67.522-71.494z" fill="#ffe5c2"/><path d="m196.542 128.001h29.458c16.569 0 30-13.431 30-30v-66.003h-21.458c-24.853 0-45 20.147-45 45v44.003c0 3.866 3.134 7 7 7z" fill="#546e7a"/><path d="m209.542 121.001v-44.003c0-24.853 20.147-45 45-45h-20c-24.853 0-45 20.147-45 45v44.003c0 3.866 3.134 7 7 7h20c-3.866 0-7-3.134-7-7z" fill="#435860"/><path d="m339.352 0c35.036 0 63.439 28.403 63.439 63.439v57.562c0 3.866-3.134 7-7 7h-108.885c-17.069 0-30.906-13.837-30.906-30.906v-66.19c.001-17.068 13.838-30.905 30.906-30.905z" fill="#546e7a"/><path d="m276.001 97.095v-66.189c0-17.069 13.837-30.906 30.905-30.906h-20c-17.069 0-30.906 13.837-30.906 30.906v66.189c0 17.069 13.837 30.906 30.906 30.906h20c-17.068 0-30.905-13.837-30.905-30.906z" fill="#435860"/><g><g><g><path d="m329.362 174.04c-4.268 0-7.726-3.459-7.726-7.726v-10.141c0-4.268 3.459-7.726 7.726-7.726s7.726 3.459 7.726 7.726v10.141c.001 4.267-3.458 7.726-7.726 7.726z" fill="#435860"/></g><g><path d="m262.794 174.04c-4.268 0-7.726-3.459-7.726-7.726v-10.141c0-4.268 3.459-7.726 7.726-7.726s7.726 3.459 7.726 7.726v10.141c0 4.267-3.459 7.726-7.726 7.726z" fill="#435860"/></g></g></g><g><path d="m296.002 235.431c-14.945 0-27.103-12.159-27.103-27.104 0-4.268 3.459-7.726 7.726-7.726s7.726 3.459 7.726 7.726c0 6.425 5.226 11.651 11.65 11.651s11.65-5.226 11.65-11.651c0-4.268 3.459-7.726 7.726-7.726s7.726 3.459 7.726 7.726c.002 14.945-12.156 27.104-27.101 27.104z" fill="#ffbd86"/></g><g><g><path d="m400.279 511.961v-110.241c0-4.265 3.451-7.726 7.726-7.726 4.265 0 7.726 3.461 7.726 7.726v110.24h-15.452z" fill="#0593fc"/></g></g><g><g><path d="m168.002 511.961v-110.241c0-4.265 3.451-7.726 7.726-7.726 4.265 0 7.726 3.461 7.726 7.726v110.24h-15.452z" fill="#0593fc"/></g></g><g><g><path d="m96.274 467.097c-4.268 0-7.726-3.459-7.726-7.726v-27.915c0-4.268 3.459-7.726 7.726-7.726s7.726 3.459 7.726 7.726v27.915c.001 4.268-3.458 7.726-7.726 7.726z" fill="#0593fc"/></g></g><g><path d="m80.002 215.361c-2.049 0-4.014-.814-5.464-2.263l-16-16c-3.017-3.018-3.017-7.91 0-10.928 3.018-3.016 7.91-3.016 10.928 0l10.536 10.537 26.535-26.537c3.018-3.016 7.911-3.016 10.927 0 3.018 3.018 3.018 7.91.001 10.928l-31.999 32c-1.449 1.449-3.414 2.263-5.464 2.263z" fill="#ebf6ff"/></g><path d="m64.001 362h32v-44.51c0-8.578-6.954-15.531-15.531-15.531h-.938c-8.578 0-15.531 6.953-15.531 15.531z" fill="#fed2a4"/><path d="m87.501 303.654c-2.113-1.076-4.497-1.695-7.031-1.695h-.938c-8.578 0-15.531 6.954-15.531 15.531v44.51h15v-44.51c0-6.044 3.46-11.269 8.5-13.836z" fill="#ffbd86"/><path d="m104.001 367v66c0 8.28-6.71 15-15 15h-34c-8.28 0-15-6.72-15-15v-66c0-8.28 6.72-15 15-15h34c8.29 0 15 6.72 15 15z" fill="#fff3de"/><path d="m55.001 433v-66c0-8.28 6.72-15 15-15h-15c-8.28 0-15 6.72-15 15v66c0 8.28 6.72 15 15 15h15c-8.28 0-15-6.72-15-15z" fill="#ffe5c2"/><g><path d="m104.001 376.27v15.46h-32c-4.27 0-7.72-3.46-7.72-7.73s3.45-7.73 7.72-7.73z" fill="#fed2a4"/></g><g><path d="m104.001 408.27v15.46h-32c-4.27 0-7.72-3.46-7.72-7.73s3.45-7.73 7.72-7.73z" fill="#fed2a4"/></g></g></svg>