<svg id="Layer_1" enable-background="new 0 0 512 512" height="512" viewBox="0 0 512 512" width="512" xmlns="http://www.w3.org/2000/svg"><g clip-rule="evenodd"><g fill-rule="evenodd"><path d="m256 134.938c32.893 0 59.558 26.665 59.558 59.558 0 38.725-27.858 29.662-27.858 99.904h-63.4c0-70.242-27.858-61.179-27.858-99.904 0-32.893 26.665-59.558 59.558-59.558z" fill="#fdcd56"/><path d="m278.04 184.792c3.337-1.933 7.61-.794 9.543 2.543s.794 7.61-2.543 9.543l-25.54 14.745c-2.379 1.378-5.233 1.195-7.376-.233l-25.137-14.513c-3.337-1.918-4.488-6.178-2.57-9.516 1.918-3.337 6.178-4.488 9.516-2.57l22.054 12.733z" fill="#f5b945"/><path d="m249 205.58h14v86.361h-14z" fill="#f5b945"/><path d="m223.091 277.71h65.819c5.415 0 9.846 4.431 9.846 9.846v21.25c0 5.415-4.431 9.846-9.846 9.846h-10.121v9.872c0 5.109-4.18 9.288-9.288 9.288h-27c-5.108 0-9.288-4.18-9.288-9.288v-9.872h-10.121c-5.415 0-9.846-4.431-9.846-9.846v-21.25c-.001-5.415 4.43-9.846 9.845-9.846z" fill="#e4e8eb"/></g><path d="m185.409 55.74c-2.733 2.733-7.165 2.733-9.899 0-2.733-2.733-2.733-7.165 0-9.899 10.466-10.466 23.009-18.916 36.984-24.704 13.437-5.566 28.133-8.637 43.507-8.637 15.373 0 30.068 3.072 43.503 8.638 13.975 5.79 26.518 14.241 36.984 24.708 2.733 2.733 2.733 7.166 0 9.899s-7.165 2.733-9.899 0c-9.234-9.235-20.22-16.658-32.39-21.7-11.733-4.861-24.633-7.544-38.198-7.544-13.567 0-26.468 2.682-38.203 7.543-12.169 5.04-23.155 12.462-32.389 21.696zm47.655 47.655c-2.733 2.733-7.165 2.733-9.899 0-2.733-2.733-2.733-7.165 0-9.898 8.404-8.404 20.014-13.602 32.837-13.602 6.246 0 12.238 1.257 17.734 3.534 5.728 2.373 10.85 5.817 15.102 10.068 2.733 2.733 2.733 7.165 0 9.898s-7.165 2.733-9.899 0c-3.02-3.02-6.586-5.436-10.508-7.061-3.795-1.572-7.991-2.44-12.43-2.44-8.957.001-17.067 3.631-22.937 9.501zm79.601-33.724c-7.359-7.359-16.191-13.306-26.043-17.387-9.466-3.921-19.81-6.086-30.619-6.086-10.81 0-21.154 2.164-30.621 6.085-9.852 4.08-18.684 10.027-26.043 17.386-2.733 2.733-2.733 7.165 0 9.899 2.733 2.733 7.165 2.733 9.899 0 6.127-6.127 13.402-11.046 21.449-14.379 7.765-3.216 16.314-4.991 25.316-4.991s17.55 1.775 25.314 4.991c8.046 3.333 15.322 8.253 21.449 14.38 2.733 2.733 7.165 2.733 9.898 0 2.734-2.733 2.734-7.165.001-9.898z" fill="#66d4f1" fill-rule="evenodd"/><g><path d="m86.599 278.575.147-80.418h-40.52m379.174 79.679-.146-79.679h40.148" fill="none" stroke="#cad0d7" stroke-linejoin="round" stroke-miterlimit="2.613" stroke-width="14"/><g fill-rule="evenodd"><path d="m35.919 218.076c11.001 0 19.918-8.918 19.918-19.919s-8.918-19.919-19.918-19.919c-11.001 0-19.919 8.918-19.919 19.919s8.918 19.919 19.919 19.919zm440.163 0c-11.001 0-19.919-8.918-19.919-19.919s8.918-19.919 19.919-19.919 19.919 8.918 19.919 19.919-8.919 19.919-19.919 19.919z" fill="#b3a4ee"/><path d="m480.236 299.264c-47.263 0-70.976 57.258-37.559 90.675 6.156 6.156 6.156 16.141 0 22.297l-33.941 33.941c-6.156 6.156-16.141 6.156-22.297 0-33.418-33.418-90.676-9.704-90.676 37.559 0 8.71-7.06 15.765-15.765 15.765h-47.998c-8.705 0-15.765-7.055-15.765-15.765 0-47.321-57.215-71.018-90.675-37.559-6.156 6.156-16.14 6.156-22.296 0l-33.941-33.941c-6.156-6.156-6.156-16.14 0-22.297 33.418-33.418 9.704-90.675-37.558-90.675-8.71 0-15.765-7.06-15.765-15.765v-19.999c0-2.203 1.797-4 4-4h67.448 47.336c2.158 0 3.926 1.714 3.995 3.871 2.042 62.982 53.742 113.414 117.221 113.414s115.179-50.431 117.221-113.413c.069-2.155 1.839-3.871 3.996-3.871h47.335 67.448c2.203 0 4 1.797 4 4v19.999c0 8.704-7.054 15.764-15.764 15.764z" fill="#fdcd56"/></g></g></g></svg>