<svg clip-rule="evenodd" fill-rule="evenodd" height="1.707in" image-rendering="optimizeQuality" shape-rendering="geometricPrecision" text-rendering="geometricPrecision" viewBox="0 0 1707 1707" width="1.707in" xmlns="http://www.w3.org/2000/svg"><g id="Layer_x0020_1"><path d="m100 1001c-13 0-23-13-19-26 182-642 624-542 629-541l-10 39c-1 0-3-1-7-1l-167 494c8 12 3 33-16 33z" fill="#f02156"/><path d="m716 1617c-11 0-20-9-20-20l2-410c0-21 25-25 36-13l490-186c4-18 34-22 39 0 1 4 27 115-28 248-50 122-180 286-513 381-2 0-4 0-6 0z" fill="#f02156"/><path d="m718 1207c-5 0-10-2-14-6l-208-208c-4-4-7-10-6-16 21-251 131-487 309-665 231-231 550-343 875-307 10 1 17 8 18 18 36 325-76 644-307 875-178 178-414 288-665 309-1 0-1 0-2 0z" fill="#dff5ff"/><path d="m614 1111-28-28 486-486c18-18 47 10 28 29zm654-662c-18 0-27-21-14-34l158-159c19-18 47 10 29 29l-159 158c-4 4-9 6-14 6z" fill="#d0e7f5"/><path d="m1692 23c-1-10-8-17-18-18-141-16-281-3-414 35 78 178 220 318 397 397 38-133 51-273 35-414z" fill="#f63061"/><path d=""/><path d="m19 1705c-13 0-23-14-19-27 58-175 125-459 195-530 160-159 435-45 435 180 0 68-27 132-75 180-62 63-352 143-530 196-2 0-4 1-6 1z" fill="#fc0"/><path d="m352 1075c148-13 292 108 277 277-108 49-305 103-413 136 32-108 87-306 136-413z" fill="#ffa725"/><path d="m1177 669c-133 0-199-161-105-254 58-58 152-58 210 0 94 94 27 254-105 254z" fill="#f02156"/><path d="m1177 411c-97 0-146 118-77 186 42 43 111 43 154 0 68-68 19-186-77-186z" fill="#77b5fe"/><path d="m1100 597c-70-70-18-190 82-185-85 12-124 120-60 184 20 20 46 31 72 32-34 5-69-5-94-31z" fill="#669fe1"/></g></svg>