<svg id="Layer_1" enable-background="new 0 0 512 512" height="512" viewBox="0 0 512 512" width="512" xmlns="http://www.w3.org/2000/svg"><g><path d="m486.265 138.464-12.718-30.706 4.813-20.218-23.102-23.073-20.244 4.807-30.745-12.702-10.909-17.712h-32.641l-10.909 17.712-28.539 11.79c-26.572-21.495-60.375-34.368-97.212-34.368-85.35 0-154.541 69.103-154.541 154.345 0 8.176.642 16.203 1.87 24.037l-.032-.06-8.255 3.409-16.189-3.846-18.435 18.411 3.851 16.169-10.151 24.53-14.177 8.71v26.045l14.177 8.711 10.151 24.501-3.851 16.169 18.435 18.412 16.189-3.846 24.561 10.167 8.722 14.129h26.078l8.722-14.129 24.526-10.165c1.061 6.831 1.639 14.361 1.639 22.779h-5.192c-7.847 0-14.264 6.409-14.264 14.246s6.417 14.275 14.264 14.275h17.764c-7.876 0-14.293 6.409-14.293 14.246s6.417 14.246 14.293 14.246h21.877c-7.876 0-14.293 6.438-14.293 14.275s6.417 14.246 14.293 14.246h64.523c7.846 0 14.264-6.409 14.264-14.246s-6.417-14.275-14.264-14.275h21.848c7.876 0 14.293-6.409 14.293-14.246s-6.417-14.246-14.293-14.246h17.764c7.846 0 14.264-6.438 14.264-14.275s-6.417-14.246-14.264-14.246h-5.192c0-62.402 31.562-76.328 58.718-113.967.495-.669.962-1.339 1.428-2.008l9.832 15.963h32.641l10.909-17.713 30.745-12.702 20.244 4.807 23.102-23.073-4.813-20.218 12.718-30.706 17.735-10.896v-32.599zm-376.842 182.546c-15.664 0-28.324-12.673-28.324-28.288 0-9.439 4.609-17.771 11.697-22.898h.01c1.847 2.961 3.786 5.859 5.824 8.682 9.908 13.733 20.402 24.31 29.736 35.236-5.015 4.535-11.658 7.268-18.943 7.268zm267.631-119.94c-19.544 0-35.47-15.906-35.47-35.425 0-19.49 15.927-35.396 35.47-35.396 19.514 0 35.441 15.906 35.441 35.396 0 19.519-15.927 35.425-35.441 35.425z" fill="#ffd422"/><path d="m486.265 138.464-12.718-30.706 4.813-20.218-23.102-23.073-20.244 4.807-30.745-12.702-10.909-17.712h-32.641l-10.909 17.712-30.745 12.702-20.244-4.807-23.102 23.073 4.813 20.218-12.718 30.706-17.735 10.896v32.599l17.735 10.896 12.718 30.706-4.813 20.218 23.102 23.073 20.244-4.807 30.745 12.702 10.909 17.713h32.641l10.909-17.713 30.745-12.702 20.244 4.807 23.102-23.073-4.813-20.218 12.718-30.706 17.735-10.896v-32.599zm-109.211 62.606c-19.544 0-35.47-15.906-35.47-35.425 0-19.49 15.927-35.396 35.47-35.396 19.514 0 35.441 15.906 35.441 35.396 0 19.519-15.927 35.425-35.441 35.425z" fill="#ff9811"/><path d="m377.054 92.347c-40.429 0-73.42 32.949-73.42 73.298 0 40.378 32.991 73.327 73.42 73.327s73.391-32.949 73.391-73.327c0-40.349-32.962-73.298-73.391-73.298zm0 108.723c-19.544 0-35.47-15.906-35.47-35.425 0-19.49 15.927-35.396 35.47-35.396 19.514 0 35.441 15.906 35.441 35.396 0 19.519-15.927 35.425-35.441 35.425z" fill="#ffc443"/><path d="m128.362 313.745c-5.015 4.533-11.656 7.265-18.939 7.265-15.664 0-28.324-12.673-28.324-28.288 0-9.439 4.609-17.771 11.697-22.898h.02c-10.729-17.2-18.173-36.651-21.433-57.485l-.027-.023-8.255 3.409-16.189-3.846-18.435 18.411 3.851 16.169-10.151 24.53-14.177 8.71v26.045l14.177 8.711 10.151 24.501-3.851 16.169 18.435 18.412 16.189-3.846 24.561 10.167 8.722 14.129h26.078l8.722-14.129 24.526-10.165c-3.933-25.33-14.552-40.967-27.348-55.948z" fill="#6bd4e0"/><path d="m118.09 321.01c4.886 0 9.481-1.234 13.493-3.413-1.056-1.292-2.13-2.575-3.22-3.852-4.003 3.619-9.044 6.084-14.619 6.934 1.416.217 2.867.331 4.346.331z" fill="#f00"/><path d="m37.144 355.124 3.85-16.169-10.151-24.5-14.176-8.711v-26.045l14.176-8.71 10.151-24.53-3.85-16.169 16.77-16.748-7.002-1.663-18.435 18.411 3.851 16.169-10.151 24.53-14.177 8.71v26.045l14.177 8.711 10.151 24.5-3.851 16.169 18.435 18.412 7.002-1.663z" fill="#53cdd3"/><path d="m128.359 313.747c-5.014 4.532-11.655 7.263-18.937 7.263-15.664 0-28.324-12.673-28.324-28.288 0-9.439 4.609-17.771 11.697-22.898h.008c-5.358-8.591-9.896-17.742-13.502-27.349l-.011-.006c-17.064 10.255-28.499 28.9-28.499 50.254 0 32.337 26.252 58.557 58.631 58.557 13.734 0 26.361-4.746 36.365-12.636-4.818-9.298-10.838-17.183-17.428-24.897z" fill="#3caadc"/><path d="m288.119 243.779 4.813-20.218-12.718-30.706-17.735-10.896v-32.599l17.735-10.896 12.718-30.705-4.813-20.219 20.72-20.694-10.018-2.379-23.102 23.073 4.813 20.219-12.718 30.705-17.735 10.896v32.599l17.735 10.896 12.718 30.706-4.813 20.218 23.102 23.073 10.018-2.379z" fill="#f28b0f"/><path d="m152.156 392.472h143.777c7.847 0 14.264 6.409 14.264 14.246 0 7.837-6.417 14.275-14.264 14.275h-143.777c-7.847 0-14.264-6.438-14.264-14.275 0-7.837 6.418-14.246 14.264-14.246z" fill="#9a99a1"/><g><g><path d="m123.691 241.992c-2.642 0-5.172-1.501-6.359-4.054-1.463-3.145-2.766-6.268-3.872-9.283-1.333-3.635.533-7.662 4.167-8.995s7.661.533 8.995 4.167c.971 2.648 2.122 5.406 3.42 8.196 1.633 3.51.112 7.679-3.398 9.312-.957.446-1.963.657-2.953.657zm-9.551-33.62c-3.491 0-6.513-2.604-6.949-6.157-.538-4.386-.811-9.054-.811-13.875 0-64.811 52.791-117.539 117.679-117.539 3.871 0 7.009 3.138 7.009 7.009s-3.138 7.009-7.009 7.009c-57.159 0-103.661 46.439-103.661 103.52 0 4.253.238 8.347.707 12.168.471 3.842-2.262 7.339-6.104 7.811-.289.036-.577.054-.861.054z" fill="#f9e075"/></g></g><path d="m185.639 386.072c-6.266 0-11.456-4.862-11.875-11.114-3.556-53.115-32.894-67.558-58.36-102.853-18.319-25.375-29.111-56.517-29.111-90.166 0-62.646 37.37-116.573 91.061-140.763-62.52 19.774-107.835 78.18-107.835 147.163 0 33.648 10.793 64.791 29.111 90.166 27.157 37.639 58.719 51.565 58.719 113.967h133.393c0-2.194.043-4.322.12-6.4z" fill="#f4ca19"/><path d="m169.921 420.993h108.248c7.876 0 14.293 6.409 14.293 14.246 0 7.837-6.417 14.246-14.293 14.246h-108.248c-7.876 0-14.293-6.409-14.293-14.246-.001-7.837 6.417-14.246 14.293-14.246z" fill="#92909e"/><path d="m191.798 449.485h64.523c7.847 0 14.264 6.438 14.264 14.275 0 7.837-6.417 14.246-14.264 14.246h-64.523c-7.876 0-14.293-6.409-14.293-14.246 0-7.837 6.417-14.275 14.293-14.275z" fill="#868496"/><path d="m160.692 406.718c0-7.837 6.417-14.246 14.264-14.246h-22.8c-7.847 0-14.264 6.409-14.264 14.246s6.417 14.275 14.264 14.275h22.8c-7.846 0-14.264-6.439-14.264-14.275z" fill="#92909e"/><path d="m178.427 435.239c0-7.837 6.417-14.246 14.293-14.246h-22.8c-7.876 0-14.293 6.409-14.293 14.246s6.417 14.246 14.293 14.246h22.799c-7.875-.001-14.292-6.41-14.292-14.246z" fill="#868496"/><path d="m200.305 463.76c0-7.837 6.417-14.275 14.293-14.275h-22.8c-7.876 0-14.293 6.438-14.293 14.275s6.417 14.246 14.293 14.246h22.8c-7.876-.001-14.293-6.41-14.293-14.246z" fill="#7c7b8e"/><path d="m252.85 269.281c-3.871 0-7.009 3.138-7.009 7.009s3.138 7.009 7.009 7.009c7.651 0 13.876 6.2 13.876 13.821 0 7.637-6.225 13.85-13.876 13.85h-57.61c-7.635 0-13.847-6.213-13.847-13.85 0-7.621 6.212-13.821 13.847-13.821 3.871 0 7.009-3.138 7.009-7.009s-3.138-7.009-7.009-7.009c-15.365 0-27.866 12.489-27.866 27.839 0 15.367 12.5 27.868 27.866 27.868h1.1v67.483h14.019v-67.483h27.373v67.483h14.019v-67.483h1.1c15.381 0 27.895-12.501 27.895-27.868-.001-15.35-12.515-27.839-27.896-27.839z" fill="#ebbf00"/></g></svg>