<svg id="Capa_1" enable-background="new 0 0 512 512" height="512" viewBox="0 0 512 512" width="512" xmlns="http://www.w3.org/2000/svg"><g><g><path d="m329.866 432.962h107.134c8.284 0 15-6.716 15-15s-6.716-15-15-15h-107.134c-8.284 0-15 6.716-15 15s6.716 15 15 15z" fill="#cfdbfd"/></g><g><path d="m358.067 136.682c8.284 0 15-6.716 15-15v-47.174h63.933c8.284 0 15-6.716 15-15s-6.716-15-15-15h-78.933c-8.284 0-15 6.716-15 15v62.174c0 8.284 6.716 15 15 15z" fill="#cfdbfd"/></g><g><path d="m421.86 252.844h75.14c8.284 0 15-6.716 15-15s-6.716-15-15-15h-75.14c-8.284 0-15 6.716-15 15s6.716 15 15 15z" fill="#cfdbfd"/></g><g><path d="m399.779 323.89h63.111c8.284 0 15-6.716 15-15s-6.716-15-15-15h-63.111c-8.284 0-15 6.716-15 15s6.716 15 15 15z" fill="#cfdbfd"/></g><circle cx="467" cy="59.508" fill="#ffe370" r="27.262"/><circle cx="467" cy="417.962" fill="#ffe370" r="27.262"/><g><path d="m422 59.508c0-24.813 20.187-45 45-45s45 20.187 45 45-20.187 45-45 45-45-20.186-45-45zm30 0c0 8.271 6.729 15 15 15s15-6.729 15-15-6.729-15-15-15-15 6.729-15 15z" fill="#ffb54c"/></g><g><path d="m422 417.962c0-24.813 20.187-45 45-45s45 20.187 45 45-20.187 45-45 45-45-20.187-45-45zm30 0c0 8.271 6.729 15 15 15s15-6.729 15-15-6.729-15-15-15-15 6.728-15 15z" fill="#ffb54c"/></g><g><path d="m182.134 432.962h-107.134c-8.284 0-15-6.716-15-15s6.716-15 15-15h107.134c8.284 0 15 6.716 15 15s-6.716 15-15 15z" fill="#e8f1fd"/></g><g><path d="m153.933 136.682c-8.284 0-15-6.716-15-15v-47.174h-63.933c-8.284 0-15-6.716-15-15s6.716-15 15-15h78.933c8.284 0 15 6.716 15 15v62.174c0 8.284-6.716 15-15 15z" fill="#e8f1fd"/></g><g><path d="m90.14 252.844h-75.14c-8.284 0-15-6.716-15-15s6.716-15 15-15h75.14c8.284 0 15 6.716 15 15s-6.716 15-15 15z" fill="#e8f1fd"/></g><g><path d="m112.221 323.89h-63.111c-8.284 0-15-6.716-15-15s6.716-15 15-15h63.111c8.284 0 15 6.716 15 15s-6.716 15-15 15z" fill="#e8f1fd"/></g><circle cx="45" cy="59.508" fill="#ffefb2" r="27.262"/><circle cx="45" cy="417.962" fill="#ffefb2" r="27.262"/><g><path d="m45 104.508c-24.813 0-45-20.187-45-45s20.187-45 45-45 45 20.187 45 45-20.187 45-45 45zm0-60c-8.271 0-15 6.729-15 15s6.729 15 15 15 15-6.729 15-15-6.729-15-15-15z" fill="#ffe370"/></g><g><path d="m45 462.962c-24.813 0-45-20.187-45-45s20.187-45 45-45 45 20.187 45 45-20.187 45-45 45zm0-60c-8.271 0-15 6.729-15 15s6.729 15 15 15 15-6.729 15-15-6.729-15-15-15z" fill="#ffe370"/></g><path d="m416.4 258.242c-17.6 62.83-59.72 152.2-160.4 225.98-80.62-58.97-134.41-134.46-160-224.58-14.72-51.85-15.51-94.48-14.89-113.4 103.28-32.91 153.6-68.06 174.89-86.73 21.29 18.67 71.61 53.83 174.91 86.73.64 18.68-.09 60.5-14.51 112z" fill="#94e671"/><path d="m416.4 258.242c-17.6 62.83-59.72 152.2-160.4 225.98v-424.71c21.29 18.67 71.61 53.83 174.91 86.73.64 18.68-.09 60.5-14.51 112z" fill="#52cc7b"/><path d="m265.276 475.256-9.276-11.194c-72.96-53.37-121.65-121.7-144.81-203.26-13.32-46.93-14.03-85.51-13.47-102.63 93.47-29.79 139.01-61.6 158.28-78.5l9.276-9.221v-13.214l-9.276-13.995c-4.8 0-9.11 2.3-11.93 6.18-1.57 1.9-37.82 44.24-165.07 83.17-5.7 1.74-9.83 6.7-10.51 12.63-.25 2.15-5.84 53.51 13.45 122.4 11.3 40.34 28.85 78.44 52.16 113.25 29.07 43.42 67.19 81.75 113.32 113.92 2.58 1.8 5.58 2.7 8.58 2.7l9.276-12.067z" fill="#52cc7b"/><g><path d="m264.655 156.301-8.655-12.309c-35.41 0-64.22 28.81-64.22 64.22v23.23c0 8.28 6.72 15 15 15 8.29 0 15-6.72 15-15v-23.23c0-18.87 15.35-34.22 34.22-34.22l8.655-9.585z" fill="#404a80"/></g><path d="m430.06 267.622c-11.3 40.34-28.85 78.44-52.16 113.25-29.07 43.42-67.19 81.75-113.32 113.92-2.58 1.8-5.58 2.7-8.58 2.7v-33.43c91.12-66.78 129.24-147.66 145.17-204.53 13.05-46.61 13.71-84.46 13.13-101.36-93.49-29.78-139.03-61.6-158.3-78.5v-36.43c4.8 0 9.11 2.3 11.93 6.18 1.57 1.9 37.82 44.24 165.07 83.17 5.7 1.74 9.83 6.7 10.51 12.63.25 2.15 5.84 53.51-13.45 122.4z" fill="#3d997a"/><path d="m320.22 208.212v23.23c0 8.28-6.72 15-15 15-8.29 0-15-6.72-15-15v-23.23c0-18.87-15.35-34.22-34.22-34.22v-30c35.41 0 64.22 28.81 64.22 64.22z" fill="#283366"/><g><path d="m269.422 246.438-13.422-29.996h-55.2c-15.08 0-27.34 12.26-27.34 27.34v85.9c0 15.08 12.26 27.34 27.34 27.34h55.2l13.422-35.8z" fill="#ffe370"/></g><path d="m338.54 243.782v85.9c0 15.08-12.26 27.34-27.34 27.34h-55.2v-140.58h55.2c15.08 0 27.34 12.26 27.34 27.34z" fill="#ffb54c"/><g><path d="m271 279.442v14.58c0 8.29-6.72 15-15 15s-15-6.71-15-15v-14.58c0-8.29 6.72-15 15-15s15 6.709 15 15z" fill="#404a80"/></g><path d="m271 279.442v14.58c0 8.29-6.72 15-15 15v-44.58c8.28 0 15 6.709 15 15z" fill="#283366"/></g></svg>