<svg height="512" viewBox="0 0 64 64" width="512" xmlns="http://www.w3.org/2000/svg"><g id="message-question-service-help-support"><path d="m53 3h-28a4 4 0 0 0 -4 4v16a4 4 0 0 0 4 4h17l7 6v-6h4a4 4 0 0 0 4-4v-16a4 4 0 0 0 -4-4z" fill="#ed1c24"/><path d="m39 31h-28a4 4 0 0 0 -4 4v16a4 4 0 0 0 4 4h4v6l7-6h17a4 4 0 0 0 4-4v-16a4 4 0 0 0 -4-4z" fill="#ffcd00"/><path d="m53 3h-1v8a12 12 0 0 1 -12 12h-19a4 4 0 0 0 4 4h17l7 6v-6h4a4 4 0 0 0 4-4v-16a4 4 0 0 0 -4-4z" fill="#d80027"/><path d="m39 31h-2v10a8 8 0 0 1 -8 8h-22v2a4 4 0 0 0 4 4h4v6l7-6h17a4 4 0 0 0 4-4v-16a4 4 0 0 0 -4-4z" fill="#ebbf00"/><g fill="#f1f2f2"><path d="m39 22a.99.99 0 1 1 .71-.29 1.05 1.05 0 0 1 -.71.29z"/><path d="m39 19a1 1 0 0 1 -1-1v-2.177a1.95 1.95 0 0 1 1.507-1.887 2 2 0 0 0 1.46-2.307 2.024 2.024 0 0 0 -1.6-1.6 2 2 0 0 0 -2.367 1.971 1 1 0 0 1 -2 0 4 4 0 1 1 5.011 3.871l-.011 2.129a1 1 0 0 1 -1 1z"/><path d="m15 38h-2a1 1 0 0 1 0-2h2a1 1 0 0 1 0 2z"/><path d="m37 38h-18a1 1 0 0 1 0-2h18a1 1 0 0 1 0 2z"/><path d="m15 42h-2a1 1 0 0 1 0-2h2a1 1 0 0 1 0 2z"/><path d="m37 42h-18a1 1 0 0 1 0-2h18a1 1 0 0 1 0 2z"/><path d="m15 46h-2a1 1 0 0 1 0-2h2a1 1 0 0 1 0 2z"/><path d="m37 46h-18a1 1 0 0 1 0-2h18a1 1 0 0 1 0 2z"/><path d="m15 50h-2a1 1 0 0 1 0-2h2a1 1 0 0 1 0 2z"/><path d="m37 50h-18a1 1 0 0 1 0-2h18a1 1 0 0 1 0 2z"/></g></g></svg>