<svg id="svg8" height="512" viewBox="0 0 16.933333 16.933334" width="512" xmlns="http://www.w3.org/2000/svg" xmlns:svg="http://www.w3.org/2000/svg"><g id="layer1-0" transform="translate(2.382 -1.059)"><g fill="#c4dcf0"><path id="path10910" d="m1.7688538 4.6911881.5291601-.5291688c.2500001-.2499994-.12465-.6246485-.3746501-.3746491l-.3364101.3358892-.3364201-.3358892c-.0625-.0625-.13255-.0861-.19895-.0822-.1992201.0117-.36320015.2693194-.17570009.4568189l.52916019.529169c.0488.049.11222.0691.18191.0718.0697-.003.1331101-.0228.1819001-.0718z" font-variant-ligatures="normal" font-variant-position="normal" font-variant-caps="normal" font-variant-numeric="normal" font-variant-alternates="normal" font-feature-settings="normal" text-indent="0" text-align="start" text-decoration-line="none" text-decoration-style="solid" text-decoration-color="#000000" text-transform="none" text-orientation="mixed" white-space="normal" shape-padding="0" isolation="auto" mix-blend-mode="normal" solid-color="#000000" solid-opacity="1" vector-effect="none"/><path id="path10912" d="m1.3222336 4.2330692v-1.0575475c0-.3528692.5293002-.3528692.5293002 0v1.0575475" font-variant-ligatures="normal" font-variant-position="normal" font-variant-caps="normal" font-variant-numeric="normal" font-variant-alternates="normal" font-feature-settings="normal" text-indent="0" text-align="start" text-decoration-line="none" text-decoration-style="solid" text-decoration-color="#000000" text-transform="none" text-orientation="mixed" white-space="normal" shape-padding="0" isolation="auto" mix-blend-mode="normal" solid-color="#000000" solid-opacity="1" vector-effect="none"/><path id="path10914" d="m10.764686 4.6911881.529171-.5291688c.25-.2499994-.12466-.6246485-.37466-.3746491l-.336411.3358892-.33641-.3358892c-.0625-.0625-.13255-.0861-.19896-.0822-.1992198.0117-.3631999.2693194-.1756998.4568189l.5291698.5291688c.0488.049.11222.0691.1819.0718.0697-.003.13311-.0228.1819-.0718z" font-variant-ligatures="normal" font-variant-position="normal" font-variant-caps="normal" font-variant-numeric="normal" font-variant-alternates="normal" font-feature-settings="normal" text-indent="0" text-align="start" text-decoration-line="none" text-decoration-style="solid" text-decoration-color="#000000" text-transform="none" text-orientation="mixed" white-space="normal" shape-padding="0" isolation="auto" mix-blend-mode="normal" solid-color="#000000" solid-opacity="1" vector-effect="none"/><path id="path10916" d="m10.318076 4.2330692v-1.0575475c0-.3528692.52929-.3528692.52929 0v1.0575475" font-variant-ligatures="normal" font-variant-position="normal" font-variant-caps="normal" font-variant-numeric="normal" font-variant-alternates="normal" font-feature-settings="normal" text-indent="0" text-align="start" text-decoration-line="none" text-decoration-style="solid" text-decoration-color="#000000" text-transform="none" text-orientation="mixed" white-space="normal" shape-padding="0" isolation="auto" mix-blend-mode="normal" solid-color="#000000" solid-opacity="1" vector-effect="none"/></g><path id="path10504" d="m4.4973846 14.552575h-5.02709151v-.793749c0-.146579.11801003-.264579.26459008-.264579h4.49791133c.1465801 0 .2645901.118.2645901.264579z" fill="#e4eff8"/><path id="rect10506" d="m-17.198397-4.7619724h2.381235c.146579 0 .264583.1180043.264583.2645836v5.02708285c0 .14657932-.118004.26458362-.264583.26458362h-2.381235c-.146579 0-.264583-.1180043-.264583-.26458362v-5.02708285c0-.1465793.118004-.2645836.264583-.2645836z" fill="#38668c" transform="matrix(0 -1 -1 0 0 0)"/><path id="path10509" d="m4.4973846 14.552575h-5.02709151v-.529169h5.02709151z" fill="#c4dcf0"/><path id="path10514" d="m3.9682144 13.494247h-3.96875116v-.529169c0-.793748-1.85208054-2.381244-1.85208054-3.1749921v-6.3499849c0-.4397389.3540101-.7937481.7937502-.7937481.43973016 0 .79375027.3540092.79375027.7937481v3.2860922l.01.0279c.0317-.1996996.13932004-.3875291.31626009-.5167588.35511011-.2593394.84973026-.1822096 1.10949034.1725896l2.0040106 2.7378235c.8776503 1.1988275.7937502 1.9652455.7937502 4.3464895z" fill="#ffd1b5"/><path id="path10520" d="m-1.6092772 10.427084c-.1464301-.240309-.2433401-.4593585-.2433401-.6369981v-6.3499849c0-.4397389.3540101-.7937481.7937502-.7937481.2545601 0 .47860017.1195097.62263021.3052393-1.41638041-.3052393-1.17304031 6.8384937-1.17304031 7.4754918z" fill="#ffb98d"/><path id="path10522" d="m.74032347 9.2836071-1.16995035-1.5368463c-.00072-.001-.001-.003-.002-.004-.34310011-.4697889-.23932008-1.1353573.23047006-1.4784665.36269011-.2648694.84070026-.2604394 1.19838036-.03-.26059007-.1406197-.58798017-.1310597-.84388025.0558-.3297301.2408194-.41554012.6829183-.18913006 1.0839174l1.19634037 1.5892662c.0408.0471.0637.1071497.0646.1694996.004.2638694-.33830009.3704491-.48472013.1508896z" fill="#ffb98d" font-variant-ligatures="normal" font-variant-position="normal" font-variant-caps="normal" font-variant-numeric="normal" font-variant-alternates="normal" font-feature-settings="normal" text-indent="0" text-align="start" text-decoration-line="none" text-decoration-style="solid" text-decoration-color="#000000" text-transform="none" text-orientation="mixed" white-space="normal" shape-padding="0" isolation="auto" mix-blend-mode="normal" solid-color="#000000" solid-opacity="1" vector-effect="none"/><path id="circle10524" d="m-15.610723-.26404625c0 .1461255-.118458.26458358-.264583.26458341-.146125.00000017-.264583-.11845791-.264583-.26458341s.118458-.26458358.264583-.26458341c.146125-.00000017.264583.11845791.264583.26458341z" fill="#e4eff8" transform="matrix(0 -1 -1 0 0 0)"/><path id="path10527" d="m-.79428699 16.987379c2.64583079 0 5.02708149.210839 5.55625169-2.170405v2.381244c0 .14658-.1180001.26459-.2645801.26459h-5.02709151c-.14658005 0-.26458008-.11801-.26458008-.26459z" fill="#2c5170"/><path id="path10576" d="m7.6723855 14.552575h5.0270815v-.793749c0-.146579-.11801-.264579-.26459-.264579h-4.4979114c-.14658 0-.2645801.118-.2645801.264579z" fill="#e4eff8"/><path id="rect10578" d="m-17.198397 7.4078016h2.381235c.146579 0 .264583.1180043.264583.2645836v5.0270828c0 .146579-.118004.264584-.264583.264584h-2.381235c-.146579 0-.264583-.118005-.264583-.264584v-5.0270828c0-.1465793.118004-.2645836.264583-.2645836z" fill="#38668c" transform="rotate(-90)"/><path id="path10581" d="m7.6723855 14.552575h5.0270815v-.529169h-5.0270815z" fill="#c4dcf0"/><path id="path10583" d="m8.2015457 13.494247h3.9687513v-.529169c0-.793748 1.85209-2.381244 1.85209-3.1749921v-6.3499849c0-.4397389-.35402-.7937481-.79375-.7937481-.43974 0-.79375.3540092-.79375.7937481v3.2860922l-.01.0279c-.0317-.1996996-.13933-.3875291-.31626-.5167588-.35512-.2593394-.84974-.1822096-1.1095.1725896l-2.0040111 2.7378235c-.8776502 1.1988275-.7937502 1.9652455-.7937502 4.3464895z" fill="#ffd1b5"/><path id="path10585" d="m8.2015457 13.494247h3.9687513v-.529169h-3.9687513c.00053.18465 0 .32126 0 .529169z" fill="#ffb98d"/><path id="path10587" d="m13.779047 10.427084c.14642-.240309.24334-.4593585.24334-.6369981v-6.3499849c0-.4397389-.35402-.7937481-.79375-.7937481-.25457 0-.47861.1195097-.62264.3052393 1.41639-.3052393 1.17305 6.8384937 1.17305 7.4754918z" fill="#ffb98d"/><path id="path10589" d="m11.429437 9.2836071 1.16996-1.5368463c.00071-.001.001-.003.002-.004.3431-.4697889.23931-1.1353573-.23048-1.4784665-.36269-.2648694-.8407-.2604394-1.19838-.03.26059-.1406197.58799-.1310597.84388.0558.32974.2408194.41554.6829183.18913 1.0839174l-1.19634 1.5892662c-.0408.0471-.0637.1071497-.0646.1694996-.004.2638694.33831.3704491.48473.1508896z" fill="#ffb98d" font-variant-ligatures="normal" font-variant-position="normal" font-variant-caps="normal" font-variant-numeric="normal" font-variant-alternates="normal" font-feature-settings="normal" text-indent="0" text-align="start" text-decoration-line="none" text-decoration-style="solid" text-decoration-color="#000000" text-transform="none" text-orientation="mixed" white-space="normal" shape-padding="0" isolation="auto" mix-blend-mode="normal" solid-color="#000000" solid-opacity="1" vector-effect="none"/><path id="circle10591" d="m-15.610723 11.905712c0 .146126-.118458.264584-.264583.264584s-.264583-.118458-.264583-.264584c0-.146125.118458-.264583.264583-.264583s.264583.118458.264583.264583z" fill="#e4eff8" transform="rotate(-90)"/><path id="path10593" d="m7.4077955 16.987379c2.6458405 0 5.0270815.210839 5.5562515-2.170405v2.381244c0 .14658-.118.26459-.26458.26459h-5.0270815c-.14658 0-.26459-.11801-.26459-.26459z" fill="#2c5170"/><path id="path10595" d="m3.4250943 9.5239566c.1792 3.2012224-2.1548007 3.7022314-3.42563106 3.7398114v.230479h3.96875116c0-2.123395.0647-2.963383-.5431201-3.9702904z" fill="#ffb98d"/><path id="path10600" d="m13.730927 3.9351599c-.11054.0321-.12103.6502284.0269 2.1507648.576811 5.8518263-3.734821 6.9115633-5.5562513 7.1008433.0003.11276 0 .186669 0 .307479h3.9687513v-.529169c0-.793748 1.85209-2.381244 1.85209-3.1749921v-5.3428173c-.12336-.3294692-.22608-.5311087-.29146-.5121087z" fill="#ffb98d"/><path id="path10626" d="m5.5557149 3.7046804h3.175011c.2931601 0 .5291601.2360094.5291601.5291688v1.0583274c0 .2931593-.236.5291688-.5291601.5291688h-3.175011c-.2931501 0-.5291601-.2360095-.5291601-.5291688v-1.0583274c0-.2931594.23601-.5291688.5291601-.5291688z" fill="#ffca28"/><path id="path10628" d="m3.4390543 3.7046804h1.0583303c.2931601 0 .5291702.2360094.5291702.5291688v1.0583274c0 .2931593-.2360101.5291688-.5291702.5291688h-1.0583303c-.2931601 0-.5291702-.2360095-.5291702-.5291688v-1.0583274c0-.2931594.2360101-.5291688.5291702-.5291688z" fill="#ff5151"/><path id="path10630" d="m5.4276749 5.8042954c.0412.0102.0838.017.12816.017h3.174881c.2931601 0 .5291701-.2360095.5291701-.5291688v-1.0583274c0-.1990596-.11017-.3700692-.2718101-.460439 0 1.9816653-2.5708907 1.9534954-3.560401 2.0308852z" fill="#ecb200"/><path id="path10634" d="m4.5832846 3.7134704c.2328001 1.7671658-.8613002 1.9702553-1.5337704 1.9352754.0966.1055697.23461.1725996.3896601.1725996h1.0583303c.2931601 0 .5291702-.2360095.5291702-.5291688v-1.0583274c0-.2637694-.1915401-.4794189-.4433902-.5203788z" fill="#ff2929"/><path id="path10638" d="m3.4390543 1.5880254h1.0583303c.2931601 0 .5291702.2359995.5291702.5291588v1.0583375c0 .2931493-.2360101.5291587-.5291702.5291587h-1.0583303c-.2931601 0-.5291702-.2360094-.5291702-.5291587v-1.0583375c0-.2931593.2360101-.5291588.5291702-.5291588z" fill="#ff5151"/><path id="path10640" d="m5.5557149 1.5880254h3.175011c.2931601 0 .5291601.2360095.5291601.5291588v1.0583375c0 .2931493-.236.5291587-.5291601.5291587h-3.175011c-.2931501 0-.5291601-.2360094-.5291601-.5291587v-1.0583375c0-.2931493.23601-.5291588.5291601-.5291588z" fill="#ffca28"/><path id="path10671" d="m3.7937744 10.989853c.2891001.712248-.3226901.560849.21808 1.108697.5407602.547859.3992202-.064 1.1093204.2361.7101102.300039.17002.623828.9413603.630388.7713402.007.23689-.326359.9520302-.614288.7151503-.287929.5631302.321379 1.1132104-.2172.5500801-.538568-.0642-.397589.2370601-1.104827.30126-.707238.6263701-.16933.6329501-.974028-.007-.8046878-.3316901-.2667891-.6329501-.9740274-.3012701-.7072283.31302-.5662486-.2370601-1.1048274-.5500802-.5385787-.3980601.0706999-1.1132104-.2171994-.7151402-.2879194-.18069-.6208486-.9520302-.6142886-.7713403.007-.2312501.3303492-.9413603.6303985-.7101002.3000393-.5685602-.3117592-1.1093204.2360895-.5407701.5478487.071.396449-.21808 1.1087073-.2890901.7122483-.6233902.1799596-.6167902.9351475-.007.755198.3277001.2229.6167902.935158z" fill="#a0bf05"/><path id="path10674" d="m6.0626551 7.1442622c-.2186301.002-.3270001.0314-.3932502.0765.1552801.1133298.0462.3355892.5488002.5379488.5164402.2079195.5825002-.048.7854902-.006-.6949302-.2866395-.1746-.6152588-.9410402-.6087388z" fill="#809804"/><path id="path10706" d="m7.7225156 7.7462908c-.1470001.0209-.2586001.1744596-.6656102.0253.0698.0292.1534.0857.2744.2041195.5500902.5385788-.0641.3976091.2372001 1.1048474.3012501.7072283.6260302.1693996.6330402.9740973-.007.804688-.3317901.26686-.6330402.974098-.3012601.707228.3128901.566259-.2372001 1.104837-.121.11848-.20463.17497-.2744.20412.6605602-.24204.5333201.322069 1.0707403-.20412.5500701-.538578-.0641-.397609.2372001-1.104837.30126-.707238.6264501-.16941.6330301-.974098-.007-.8046978-.3317701-.2668691-.6330301-.9740974-.3012801-.7072383.31287-.5662686-.2372001-1.1048474-.2062701-.2019595-.3135801-.2424694-.4051301-.2294394z" fill="#809804"/><path id="path10716" d="m6.6166352 12.27107c-.0949-.008-.21965.008-.3984301.0796-.5026301.202359-.3935201.424619-.5488002.537949.0662.0452.1743801.0746.3932502.0765.7664402.007.24611-.322099.9410402-.608748-.13271.0276-.20783-.0697-.3870601-.0853z" fill="#809804"/><path id="ellipse10804" d="m7.1453159 10.054695c.0000002.584515-.4738444 1.058359-1.0583613 1.058359s-1.0583615-.473844-1.0583613-1.058359c.0000001-.5845153.4738446-1.0583585 1.0583613-1.0583585s1.0583612.4738432 1.0583613 1.0583585z" fill="#e4eff8"/><path id="path10806" d="m6.0869451 8.9963378c-.5845002.0000115-1.0583284.4738384-1.0583403 1.0583372.0003768.416213.2446679.793563.6242601.964278-.062205-.136652-.094623-.284976-.0951-.435119.0000173-.5844911.4738378-1.0583103 1.0583303-1.0583274.1497205.0003101.2976715.032383.4340802.0941-.1708694-.3788418-.547647-.6226178-.9632403-.6232185z" fill="#c4dcf0"/><path id="circle10813" d="m4.2328045 4.7630179c0 .1461196-.11846.2645794-.2645801.2645794-.14613 0-.26459-.1184598-.26459-.2645794 0-.1461297.11846-.2645894.26459-.2645894.1461201 0 .2645801.1184597.2645801.2645894z" fill="#e4eff8"/><path id="path10824" d="m4.5832746 1.5968054c.2328101 1.7671758-.8612902 1.9702653-1.5337604 1.9352854.0966.1055598.23461.1725996.3896501.1725996h1.0583403c.2931501 0 .5291602-.2360094.5291602-.5291687v-1.0583275c0-.2637694-.1915301-.4794289-.4433902-.5203888z" fill="#ff2929"/><path id="circle10830" d="m4.2328045 2.6463529c0 .1461197-.11846.2645794-.2645801.2645794-.14613 0-.26459-.1184597-.26459-.2645794 0-.1461296.11846-.2645893.26459-.2645893.1461201 0 .2645801.1184597.2645801.2645893z" fill="#e4eff8"/><path id="path10931" d="m5.4276749 3.6876305c.0412.0102.0838.0171.12816.0171h3.174881c.2931601 0 .5291701-.2360094.5291701-.5291587v-1.0583376c0-.1990595-.11017-.3700691-.2718101-.4604289 0 1.9816553-2.5708907 1.9534853-3.560401 2.0308751z" fill="#ecb200"/><path id="path10940" d="m6.0848851 2.3817736c-.3528701 0-.3528701.5291587 0 .5291587h2.1166606c.3528701 0 .3528701-.5291587 0-.5291587z" fill="#e4eff8" font-variant-ligatures="normal" font-variant-position="normal" font-variant-caps="normal" font-variant-numeric="normal" font-variant-alternates="normal" font-feature-settings="normal" text-indent="0" text-align="start" text-decoration-line="none" text-decoration-style="solid" text-decoration-color="#000000" text-transform="none" text-orientation="mixed" white-space="normal" shape-padding="0" isolation="auto" mix-blend-mode="normal" solid-color="#000000" solid-opacity="1" vector-effect="none"/><path id="path10942" d="m6.0848851 4.4984285c-.3528701 0-.3528701.5291688 0 .5291688h2.1166606c.3528701 0 .3528701-.5291688 0-.5291688z" fill="#e4eff8" font-variant-ligatures="normal" font-variant-position="normal" font-variant-caps="normal" font-variant-numeric="normal" font-variant-alternates="normal" font-feature-settings="normal" text-indent="0" text-align="start" text-decoration-line="none" text-decoration-style="solid" text-decoration-color="#000000" text-transform="none" text-orientation="mixed" white-space="normal" shape-padding="0" isolation="auto" mix-blend-mode="normal" solid-color="#000000" solid-opacity="1" vector-effect="none"/></g></svg>