<svg id="Capa_1" enable-background="new 0 0 512 512" height="512" viewBox="0 0 512 512" width="512" xmlns="http://www.w3.org/2000/svg"><g><g><path d="m83.222 401.692-22.924 19.352c48.795 57.804 120.126 90.956 195.702 90.956l25.873-14.838-25.873-15.162c-66.72 0-129.695-29.271-172.778-80.308z" fill="#445373"/><path d="m482 256c0 60.367-23.508 117.121-66.194 159.806-42.686 42.686-99.439 66.194-159.806 66.194v30c68.38 0 132.667-26.628 181.02-74.98 48.351-48.353 74.98-112.64 74.98-181.02z" fill="#363c5a"/><path d="m74.98 74.98c-48.352 48.353-74.98 112.64-74.98 181.02h30c0-60.367 23.508-117.121 66.194-159.806 42.686-42.686 99.439-66.194 159.806-66.194l34.03-15-34.03-15c-68.38 0-132.667 26.628-181.02 74.98z" fill="#445373"/><path d="m427.108 108.353 22.704-19.609c-48.71-56.398-119.352-88.744-193.812-88.744v30c65.734 0 128.101 28.559 171.108 78.353z" fill="#363c5a"/></g><g><g><path d="m49.455 434.617c-27.27 0-49.455-22.185-49.455-49.454s22.185-49.454 49.455-49.454c27.269 0 49.454 22.185 49.454 49.454s-22.185 49.454-49.454 49.454z" fill="#ff608b"/></g><g><path d="m462.546 172.183c-27.269 0-49.454-22.185-49.454-49.455 0-27.269 22.185-49.454 49.454-49.454s49.454 22.185 49.454 49.455c0 27.269-22.185 49.454-49.454 49.454z" fill="#6de349"/></g></g><g><g><path d="m256 117.861-119.632 69.07 119.632 95.346 23.532-90.242z" fill="#9ffcfe"/></g><path d="m375.632 186.931-119.632-69.07v164.416z" fill="#7be2f6"/><path d="m136.368 186.931v138.138l119.632 69.07 25.873-66.308-25.873-71.831z" fill="#7be2f6"/><path d="m256 256v138.139l119.632-69.07v-138.138z" fill="#29cce8"/></g></g></svg>