<svg id="Layer_1" height="512" viewBox="0 0 36 36" width="512" xmlns="http://www.w3.org/2000/svg" data-name="Layer 1"><g fill-rule="evenodd"><path d="m34 10v-3.43a4.58 4.58 0 0 0 -4.57-4.57h-22.86a4.58 4.58 0 0 0 -4.57 4.57v3.43zm-5.71-4.57a1.14 1.14 0 1 1 -1.15 1.14 1.14 1.14 0 0 1 1.15-1.14zm-4.58 0a1.14 1.14 0 1 1 -1.14 1.14 1.14 1.14 0 0 1 1.14-1.14zm-16 0h4.58a1.14 1.14 0 0 1 0 2.28h-4.58a1.14 1.14 0 0 1 0-2.28z" fill="#072a30"/><path d="m34 12.29h-32v17.14a4.58 4.58 0 0 0 4.57 4.57h22.86a4.58 4.58 0 0 0 4.57-4.57zm-20.83 14.11a1.14 1.14 0 0 1 -1.73 1.49l-3.44-4a1.14 1.14 0 0 1 0-1.49l3.45-4a1.14 1.14 0 0 1 1.73 1.49l-2.8 3.25zm7.67-6.8-3.45 8a1.14 1.14 0 0 1 -2.1-.91l3.45-8a1.14 1.14 0 1 1 2.1.91zm7.16 4.29-3.45 4a1.14 1.14 0 1 1 -1.73-1.49l2.8-3.26-2.8-3.25a1.14 1.14 0 0 1 1.73-1.49l3.45 4a1.14 1.14 0 0 1 0 1.49z" fill="#43d685"/></g></svg>